<mxfile host="app.diagrams.net" modified="2023-08-01T08:30:38.097Z" agent="Mozilla/5.0 (Windows NT 10.0; Win64; x64) AppleWebKit/537.36 (KHTML, like Gecko) Chrome/115.0.0.0 Safari/537.36" version="21.6.5" etag="skF1Bj2Rwp0pLuVyBOxg" type="github">
  <diagram name="第 1 页" id="TczXxE-Mez5GK1-Ul04N">
    <mxGraphModel>
      <root>
        <mxCell id="0" />
        <mxCell id="1" parent="0" />
      </root>
    </mxGraphModel>
  </diagram>
</mxfile>
